<svg width="80" height="80" viewBox="0 0 80 80" fill="none" xmlns="http://www.w3.org/2000/svg">
<path d="M40 0C17.9088 0 0 17.9088 0 40C0 58.7584 12.9152 74.4992 30.3376 78.8224V52.224H22.0896V40H30.3376V34.7328C30.3376 21.1184 36.4992 14.808 49.8656 14.808C52.4 14.808 56.7728 15.3056 58.5616 15.8016V26.8816C57.6176 26.7824 55.9776 26.7328 53.9408 26.7328C47.3824 26.7328 44.848 29.2176 44.848 35.6768V40H57.9136L55.6688 52.224H44.848V79.7072C64.6544 77.3152 80.0016 60.4512 80.0016 40C80 17.9088 62.0912 0 40 0Z" fill="#DCDCDD"/>
</svg>
