<svg width="115" height="43" viewBox="0 0 115 43" fill="none" xmlns="http://www.w3.org/2000/svg">
<g clip-path="url(#clip0_13_392)">
<path d="M48.4032 10.0989C50.0823 10.0989 51.2755 10.3388 51.9829 10.8206C52.514 11.1873 52.7784 11.648 52.7784 12.2066C52.7784 12.3985 52.7498 12.602 52.6902 12.8131L52.3806 13.9399C52.2044 14.5657 51.8971 15.0705 51.4637 15.4564C51.0278 15.8422 50.5467 16.1167 50.0156 16.2799L52.0281 20.4971H47.5624L45.7047 16.6119H44.3353L43.4302 20.4971H39.186L41.9941 10.0989H48.4032ZM47.0123 12.3524H45.3546L44.7806 14.8651H46.3287C47.1099 14.8651 47.6696 14.7423 48.0078 14.4966C48.346 14.2509 48.5151 13.9265 48.5151 13.5214C48.5151 12.7421 48.015 12.3524 47.0123 12.3524Z" fill="#DCDCDD"/>
<path d="M64.0081 18.2742C64.0081 18.5257 64.2034 18.6504 64.594 18.6504C64.9846 18.6504 65.3132 18.6025 65.5776 18.5065L65.4681 20.1381C64.7607 20.5143 63.9652 20.7005 63.0816 20.7005C61.4597 20.7005 60.5618 20.3147 60.3855 19.545C59.6496 20.3147 58.5659 20.7005 57.1369 20.7005C54.7195 20.7005 53.512 20.021 53.512 18.6639C53.512 18.4335 53.5477 18.1782 53.6215 17.898L54.086 16.2088C54.3217 15.343 54.8624 14.652 55.7103 14.1356C56.5581 13.6212 57.6633 13.3621 59.0256 13.3621C60.3879 13.3621 61.312 13.5694 61.8003 13.984L61.9098 13.5502H65.2704L64.0319 18.0995C64.0176 18.1571 64.0105 18.2147 64.0105 18.2723L64.0081 18.2742ZM57.4656 17.5812C57.437 17.6676 57.4203 17.7886 57.4203 17.9421C57.4203 18.0957 57.5299 18.2473 57.7514 18.3971C57.9729 18.5468 58.3444 18.6216 58.8684 18.6216C59.3924 18.6216 59.8449 18.4873 60.2283 18.2166L60.8904 15.7903C60.7285 15.5504 60.345 15.4294 59.7401 15.4294C58.604 15.4294 57.9419 15.7865 57.7514 16.4986L57.4632 17.5812H57.4656Z" fill="#DCDCDD"/>
<path d="M74.6185 13.3639C76.1213 13.3639 77.1598 13.6231 77.7361 14.1433C78.1482 14.5003 78.3554 14.9514 78.3554 15.5004C78.3554 15.7212 78.3196 15.9573 78.2458 16.2087L77.8028 17.8979C77.5527 18.8136 77.0145 19.5085 76.188 19.9845C75.364 20.4606 74.3327 20.6986 73.0942 20.6986C71.8557 20.6986 70.9936 20.4817 70.5077 20.0478L69.3145 24.5108H65.5562L68.519 13.5482H71.9224L71.8129 13.9379C72.5059 13.5521 73.4396 13.3601 74.6209 13.3601L74.6185 13.3639ZM72.3202 18.6216C72.7322 18.6216 73.1156 18.5352 73.4705 18.3625C73.8254 18.1897 74.0445 17.9287 74.1326 17.5831L74.4208 16.5005C74.4494 16.4045 74.4661 16.2836 74.4661 16.1396C74.4661 15.9957 74.3708 15.8421 74.1779 15.677C73.9873 15.5139 73.6539 15.4313 73.1823 15.4313C72.4154 15.4313 71.9153 15.5522 71.6795 15.7922L71.0174 18.2185C71.2246 18.4872 71.658 18.6235 72.3225 18.6235L72.3202 18.6216Z" fill="#DCDCDD"/>
<path d="M84.4096 20.7005C82.6995 20.7005 81.4705 20.4509 80.7179 19.9499C80.1582 19.5833 79.8772 19.0938 79.8772 18.4776C79.8772 18.2761 79.9058 18.0592 79.9653 17.8269L81.4682 12.2371L85.5123 11.1392L84.8716 13.552H90.9711L90.4186 15.5887H84.3191L83.8761 17.2203C83.8165 17.4027 83.7879 17.5678 83.7879 17.7117C83.7879 18.3183 84.2309 18.6216 85.1145 18.6216C85.5861 18.6216 85.9791 18.4911 86.2959 18.2319C86.6126 17.9728 86.8294 17.6253 86.9484 17.1915H90.6186C89.9994 19.5315 87.9297 20.7005 84.4072 20.7005H84.4096Z" fill="#DCDCDD"/>
<path d="M98.4235 13.3486C100.014 13.3486 101.215 13.5751 102.027 14.0282C102.66 14.3852 102.977 14.8804 102.977 15.5158C102.977 15.727 102.939 15.9592 102.868 16.2088L102.403 17.898C102.122 18.9192 101.472 19.6409 100.448 20.0652C99.4238 20.4894 98.0567 20.7005 96.3466 20.7005C94.6366 20.7005 93.3838 20.4894 92.5883 20.0652C91.9977 19.7465 91.7047 19.2705 91.7047 18.6351C91.7047 18.4143 91.7404 18.1686 91.8143 17.898L92.2787 16.2088C92.7955 14.3027 94.8438 13.3486 98.4235 13.3486ZM99.0213 16.4986C99.0498 16.4026 99.0665 16.2798 99.0665 16.1301C99.0665 15.9803 98.9712 15.8153 98.7783 15.631C98.5878 15.4486 98.252 15.3565 97.7733 15.3565C97.2945 15.3565 96.892 15.4601 96.5681 15.6675C96.2442 15.8748 96.037 16.1512 95.9489 16.4986L95.6607 17.5813C95.6321 17.6772 95.6154 17.8001 95.6154 17.9498C95.6154 18.0995 95.7107 18.2608 95.9036 18.4335C96.0942 18.6063 96.43 18.6927 96.9087 18.6927C97.3874 18.6927 97.7899 18.5852 98.1138 18.3683C98.4378 18.1514 98.645 17.8884 98.7331 17.5813L99.0213 16.4986Z" fill="#DCDCDD"/>
<path d="M115 15.0244C115 15.3527 114.914 15.6694 114.745 15.9785C114.576 16.2875 114.409 16.5121 114.247 16.658L114.004 16.8595H110.668C111.037 16.6388 111.22 16.3643 111.22 16.036C111.22 15.8633 111.135 15.7212 110.965 15.6099C110.796 15.4986 110.563 15.4429 110.27 15.4429C109.77 15.4429 109.334 15.6061 108.965 15.9343L107.726 20.499H103.968L105.847 13.5521H109.339L109.074 14.5196C109.915 13.7403 110.932 13.3506 112.125 13.3506C113.083 13.3506 113.802 13.5003 114.281 13.7978C114.759 14.0973 115 14.5062 115 15.0264V15.0244Z" fill="#DCDCDD"/>
<path d="M42.0345 32.8975H40.5912C40.1148 32.8975 39.6409 32.8936 39.1741 32.884V24.4649C39.7504 24.4572 40.3244 24.4514 40.9008 24.4514H44.3281C44.9044 24.4514 45.4713 24.4553 46.0286 24.4649C47.8101 24.4725 49.3487 24.6395 50.6443 24.9639C51.9399 25.2883 52.9426 25.7471 53.6548 26.3422C54.3645 26.9353 54.7218 27.6379 54.7218 28.446C54.7218 29.3309 54.3121 30.1045 53.4928 30.7648C52.6735 31.4271 51.5255 31.9396 50.0513 32.3062C48.5746 32.6729 46.8479 32.8648 44.8687 32.8821C44.3995 32.8898 43.9279 32.8955 43.4516 32.8955H42.0345V32.8975ZM43.0872 31.2927H44.8425C46.6597 31.2927 48.0911 31.0451 49.1343 30.5479C50.1775 30.0508 50.6991 29.3674 50.6991 28.4998C50.6991 27.7166 50.2537 27.1138 49.363 26.6915C48.4722 26.2712 47.1908 26.06 45.5165 26.06H43.0872V31.2927Z" fill="#46494C"/>
<path d="M64.3295 33.0741C62.0979 33.0741 60.3354 32.7708 59.0398 32.1642C57.7441 31.5576 57.0963 30.715 57.0963 29.6362C57.0963 28.9279 57.375 28.3174 57.9323 27.803C58.4896 27.2886 59.2779 26.8931 60.2949 26.6148C61.3119 26.3364 62.5028 26.1982 63.8722 26.1982C65.8871 26.1982 67.4352 26.5015 68.5141 27.1081C69.5931 27.7147 70.1337 28.5919 70.1337 29.7379V29.9587C70.1337 30.0297 70.1242 30.1007 70.1075 30.1679H60.9308C61.2905 31.0778 62.5766 31.5327 64.7916 31.5327C65.4751 31.5327 66.1729 31.4924 66.8827 31.4137C67.5924 31.3331 68.2188 31.2256 68.7595 31.0912L69.3811 32.5193C67.8878 32.8898 66.2039 33.076 64.3343 33.076L64.3295 33.0741ZM60.9023 28.8261H66.4897C66.4349 28.4633 66.1658 28.1754 65.6799 27.9604C65.1941 27.7454 64.5462 27.6379 63.7365 27.6379C62.9267 27.6379 62.3289 27.7435 61.8335 27.9546C61.3381 28.1658 61.0285 28.4556 60.9023 28.8261Z" fill="#46494C"/>
<path d="M76.2594 32.884L71.3459 26.3997L75.502 26.2231L78.5791 30.9126L81.5205 26.3748H85.5956L80.7108 32.884H76.257H76.2594Z" fill="#46494C"/>
<path d="M91.619 33.0741C90.7377 33.0741 89.8875 33.0318 89.0682 32.9474C88.2489 32.8629 87.551 32.7497 86.9771 32.6057L87.3272 31.0892C87.9393 31.2658 88.6133 31.4098 89.3516 31.5192C90.0899 31.6286 90.783 31.6843 91.4308 31.6843C92.0072 31.6843 92.5097 31.6344 92.9432 31.5327C93.3743 31.4309 93.591 31.2754 93.591 31.0643C93.591 30.8531 93.3624 30.7149 92.9027 30.6228C92.443 30.5306 91.7381 30.4001 90.783 30.2312C90.4234 30.164 90.0232 30.0872 89.5826 30.0028C89.142 29.9183 88.7228 29.807 88.3275 29.6668C87.9321 29.5286 87.6082 29.3463 87.3557 29.1236C87.1033 28.9009 86.9771 28.6207 86.9771 28.2828C86.9771 27.8279 87.2247 27.4459 87.7201 27.1388C88.2155 26.8317 88.8943 26.5975 89.7589 26.4362C90.6234 26.2769 91.5951 26.1963 92.6741 26.1963C93.4124 26.1963 94.1364 26.2308 94.8462 26.298C95.5559 26.3652 96.2371 26.4535 96.8849 26.5629L96.3728 28.0679C95.8512 27.9239 95.2606 27.8087 94.6056 27.7204C93.9483 27.6321 93.3314 27.588 92.7574 27.588C92.1834 27.588 91.7357 27.6321 91.3665 27.7204C90.9973 27.8087 90.814 27.9469 90.814 28.1312C90.814 28.2828 90.9402 28.4038 91.1926 28.4921C91.4451 28.5804 91.7857 28.6572 92.2192 28.7186C92.6502 28.7819 93.1266 28.8645 93.6505 28.9643C94.1721 29.0564 94.7247 29.1754 95.3106 29.3175C95.8965 29.4615 96.3943 29.663 96.8087 29.9241C97.2231 30.1851 97.4303 30.5441 97.4303 30.999C97.4303 31.4789 97.1731 31.8724 96.661 32.1815C96.1489 32.4905 95.4559 32.7151 94.5818 32.8572C93.7077 33.0011 92.7241 33.0721 91.6261 33.0721L91.619 33.0741Z" fill="#46494C"/>
<path d="M29.5259 12.9147L27.8397 12.2813L17.3102 8.32507C18.0247 5.24418 16.1027 2.04812 12.4158 0.662198C8.05017 -0.980944 2.8557 0.541265 0.819353 4.06365C-1.21699 7.58412 0.671688 11.7688 5.03971 13.4119C8.72657 14.7978 12.9993 13.9283 15.4691 11.5077L24.8673 15.0397L16.7624 29.0467C12.9469 28.4804 8.99094 30.0276 7.27612 32.9933C5.23977 36.5138 7.12846 40.6984 11.4965 42.3415C15.8645 43.9828 21.0566 42.4606 23.0953 38.9401C24.8173 35.9629 23.7312 32.5115 20.716 30.5247L29.3425 15.6136L30.1285 14.2546C30.419 13.7517 30.1499 13.1528 29.5235 12.9186L29.5259 12.9147ZM6.41871 11.0278C3.68215 9.99892 2.49845 7.37873 3.77503 5.17316C5.05162 2.96759 8.30263 2.01357 11.0392 3.04245C13.7758 4.07133 14.9595 6.69153 13.6829 8.8971C12.4063 11.1027 9.15528 12.0567 6.41871 11.0278ZM20.1396 37.8267C18.8631 40.0323 15.612 40.9863 12.8755 39.9575C10.1389 38.9286 8.95521 36.3084 10.2318 34.1028C11.5084 31.8972 14.7594 30.9432 17.496 31.9721C20.2325 33.001 21.4162 35.6212 20.1396 37.8267Z" fill="#46494C"/>
<path d="M38.3953 10.7186C38.3429 10.6822 38.2834 10.6495 38.2191 10.6246L25.0221 5.66444C24.6148 5.51088 24.1313 5.65292 23.9432 5.98117L22.5285 8.42668C22.3379 8.75493 22.5142 9.1446 22.9214 9.29624L32.4363 12.8724L22.8428 29.4554C22.6523 29.7837 22.8286 30.1733 23.2358 30.325L26.2701 31.4652C26.6774 31.6188 27.1609 31.4767 27.349 31.1485L38.693 11.5402C38.8669 11.2408 38.7311 10.8914 38.3977 10.7167L38.3953 10.7186Z" fill="#DCDCDD"/>
<path d="M22.2712 15.3353L15.5382 12.8053C15.1309 12.6517 14.6474 12.7938 14.4593 13.122L13.0445 15.5676C12.854 15.8958 13.0303 16.2855 13.4375 16.4371L16.3932 17.5466L11.7822 25.5166C11.5917 25.8449 11.768 26.2345 12.1752 26.3862L15.2095 27.5264C15.6168 27.68 16.1003 27.5379 16.2884 27.2097L21.2042 18.7118C21.2209 18.6907 21.2376 18.6715 21.2519 18.6484L22.6666 16.2029C22.8571 15.8747 22.6809 15.485 22.2736 15.3334L22.2712 15.3353Z" fill="#DCDCDD"/>
<path d="M15.1857 39.0456C17.2968 39.0456 19.0083 37.6662 19.0083 35.9647C19.0083 34.2632 17.2968 32.8838 15.1857 32.8838C13.0745 32.8838 11.363 34.2632 11.363 35.9647C11.363 37.6662 13.0745 39.0456 15.1857 39.0456Z" fill="#DCDCDD"/>
</g>
<defs>
<clipPath id="clip0_13_392">
<rect width="115" height="43" fill="white"/>
</clipPath>
</defs>
</svg>
