<svg width="80" height="80" viewBox="0 0 80 80" fill="none" xmlns="http://www.w3.org/2000/svg">
<path d="M0 79.9998L5.62332 59.4565C2.15333 53.4432 0.329999 46.6266 0.333333 39.6366C0.343333 17.7833 18.1266 0 39.9766 0C50.5799 0.00333333 60.5332 4.13332 68.0199 11.6266C75.5032 19.12 79.6232 29.0799 79.6198 39.6732C79.6098 61.5299 61.8265 79.3132 39.9766 79.3132C33.3433 79.3098 26.8066 77.6465 21.0166 74.4865L0 79.9998ZM21.99 67.3099C27.5766 70.6265 32.9099 72.6132 39.9632 72.6165C58.1232 72.6165 72.9165 57.8365 72.9265 39.6666C72.9332 21.46 58.2099 6.69999 39.9899 6.69332C21.8166 6.69332 7.03332 21.4733 7.02665 39.6399C7.02332 47.0566 9.19665 52.6099 12.8466 58.4199L9.51665 70.5798L21.99 67.3099ZM59.9465 49.0966C59.6999 48.6832 59.0399 48.4366 58.0465 47.9399C57.0565 47.4432 52.1865 45.0466 51.2766 44.7166C50.3699 44.3866 49.7099 44.2199 49.0466 45.2132C48.3866 46.2032 46.4866 48.4366 45.9099 49.0966C45.3332 49.7566 44.7532 49.8399 43.7632 49.3432C42.7732 48.8466 39.5799 47.8032 35.7966 44.4266C32.8533 41.7999 30.8633 38.5566 30.2866 37.5633C29.7099 36.5733 30.2266 36.0366 30.7199 35.5433C31.1666 35.0999 31.7099 34.3866 32.2066 33.8066C32.7099 33.2333 32.8733 32.8199 33.2066 32.1566C33.5366 31.4966 33.3733 30.9166 33.1233 30.4199C32.8733 29.9266 30.8933 25.0499 30.0699 23.0666C29.2633 21.1366 28.4466 21.3966 27.8399 21.3666L25.9399 21.3333C25.2799 21.3333 24.2066 21.58 23.2999 22.5733C22.3933 23.5666 19.8333 25.9599 19.8333 30.8366C19.8333 35.7133 23.3833 40.4232 23.8766 41.0832C24.3733 41.7432 30.8599 51.7499 40.7966 56.0399C43.1599 57.0599 45.0066 57.6699 46.4432 58.1265C48.8166 58.8799 50.9766 58.7732 52.6832 58.5199C54.5865 58.2365 58.5432 56.1232 59.3699 53.8099C60.1965 51.4932 60.1965 49.5099 59.9465 49.0966Z" fill="#DCDCDD"/>
</svg>
