<svg width="41" height="41" viewBox="0 0 41 41" fill="none" xmlns="http://www.w3.org/2000/svg">
<path d="M0 41L2.88195 30.4715C1.10358 27.3897 0.169125 23.8962 0.170833 20.3138C0.175958 9.114 9.2899 6.10352e-05 20.488 6.10352e-05C25.9222 0.00176936 31.0233 2.11839 34.8602 5.95871C38.6954 9.79904 40.8069 14.9035 40.8052 20.3326C40.8 31.5341 31.6861 40.6481 20.488 40.6481C17.0884 40.6463 13.7384 39.7939 10.771 38.1744L0 41ZM11.2698 34.4964C14.133 36.1961 16.8663 37.2143 20.4812 37.216C29.7881 37.216 37.3697 29.6413 37.3748 20.3292C37.3783 10.9983 29.8326 3.4338 20.4948 3.43039C11.181 3.43039 3.60458 11.0051 3.60116 20.3155C3.59945 24.1166 4.71328 26.9626 6.5839 29.9402L4.87728 36.1722L11.2698 34.4964ZM30.7226 25.162C30.5962 24.9502 30.2579 24.8238 29.7489 24.5693C29.2415 24.3147 26.7456 23.0864 26.2792 22.9173C25.8146 22.7482 25.4763 22.6628 25.1364 23.1718C24.7981 23.6792 23.8244 24.8238 23.5288 25.162C23.2333 25.5003 22.936 25.543 22.4287 25.2885C21.9213 25.0339 20.2847 24.4992 18.3457 22.7687C16.8373 21.4225 15.8174 19.7603 15.5219 19.2512C15.2263 18.7439 15.4911 18.4688 15.744 18.216C15.9729 17.9888 16.2513 17.6232 16.5059 17.3259C16.7638 17.0321 16.8475 16.8203 17.0184 16.4803C17.1875 16.1421 17.1038 15.8448 16.9757 15.5903C16.8475 15.3374 15.8328 12.8382 15.4108 11.8217C14.9974 10.8326 14.5789 10.9658 14.268 10.9505L13.2942 10.9334C12.956 10.9334 12.4059 11.0598 11.9412 11.5689C11.4766 12.078 10.1646 13.3045 10.1646 15.8038C10.1646 18.3031 11.9839 20.717 12.2368 21.0552C12.4913 21.3935 15.8157 26.5219 20.9082 28.7205C22.1194 29.2432 23.0659 29.5559 23.8022 29.7899C25.0185 30.176 26.1255 30.1213 27.0001 29.9915C27.9756 29.8463 30.0034 28.7632 30.4271 27.5776C30.8507 26.3903 30.8507 25.3739 30.7226 25.162Z" fill="#1985A1"/>
</svg>
