<?xml version="1.0" standalone="no"?>
<!DOCTYPE svg PUBLIC "-//W3C//DTD SVG 20010904//EN"
 "http://www.w3.org/TR/2001/REC-SVG-20010904/DTD/svg10.dtd">
<svg version="1.0" xmlns="http://www.w3.org/2000/svg"
 width="80.000000pt" height="80.000000pt" viewBox="0 0 80.000000 80.000000"
 preserveAspectRatio="xMidYMid meet">
<metadata>
Created by potrace 1.14, written by Peter Selinger 2001-2017
</metadata>
<g transform="translate(0.000000,80.000000) scale(0.100000,-0.100000)"
fill="#000000" stroke="none">
<path d="M276 770 c-110 -39 -197 -117 -245 -219 -22 -48 -26 -69 -26 -151 0
-78 4 -104 23 -144 103 -224 372 -309 602 -191 46 24 123 93 141 127 18 33
-28 21 -62 -17 -180 -197 -520 -153 -636 83 -24 50 -28 68 -28 147 1 77 5 97
27 141 131 252 488 280 658 51 19 -26 43 -47 52 -47 24 0 23 10 -8 56 -40 59
-102 112 -174 147 -57 27 -77 31 -165 34 -82 3 -111 0 -159 -17z"/>
<path d="M380 722 c-87 -11 -180 -59 -229 -118 -121 -148 -94 -353 62 -460 59
-41 111 -56 197 -59 84 -4 155 17 215 63 86 66 63 88 -28 27 -189 -125 -442
-27 -482 187 -17 90 39 209 124 266 130 87 290 73 399 -35 41 -41 65 -52 76
-35 9 15 -85 101 -138 127 -51 25 -148 43 -196 37z"/>
<path d="M362 563 c-11 -21 -45 -96 -77 -167 -41 -92 -54 -131 -46 -139 17
-17 35 8 86 123 25 58 49 108 53 112 4 3 32 -46 62 -110 58 -124 67 -137 86
-121 9 7 -7 51 -62 171 -41 89 -76 163 -78 166 -3 2 -13 -13 -24 -35z"/>
<path d="M437 569 c-4 -13 4 -43 18 -73 94 -204 116 -246 125 -246 17 0 24 30
12 53 -6 12 -38 80 -71 152 -33 71 -64 131 -69 133 -5 1 -12 -7 -15 -19z"/>
</g>
</svg>
