<?xml version="1.0" standalone="no"?>
<!DOCTYPE svg PUBLIC "-//W3C//DTD SVG 20010904//EN"
 "http://www.w3.org/TR/2001/REC-SVG-20010904/DTD/svg10.dtd">
<svg version="1.0" xmlns="http://www.w3.org/2000/svg"
 width="2212.000000pt" height="2212.000000pt" viewBox="0 0 2212.000000 2212.000000"
 preserveAspectRatio="xMidYMid meet">
<metadata>
Created by potrace 1.14, written by Peter Selinger 2001-2017
</metadata>
<g transform="translate(0.000000,2212.000000) scale(0.100000,-0.100000)"
fill="#000000" stroke="none">
<path d="M10988 22115 c-2 -2 -73 -5 -158 -9 -85 -3 -180 -8 -210 -11 -30 -2
-93 -7 -140 -10 -47 -3 -98 -8 -115 -10 -16 -2 -57 -7 -90 -10 -60 -6 -114
-12 -170 -19 -16 -3 -52 -7 -80 -11 -27 -3 -75 -10 -105 -15 -30 -5 -77 -12
-105 -15 -27 -4 -66 -10 -85 -15 -19 -4 -56 -11 -81 -14 -60 -9 -70 -10 -277
-52 -209 -42 -176 -35 -337 -74 -71 -17 -137 -33 -145 -35 -113 -25 -444 -120
-650 -187 -1081 -351 -2117 -900 -3025 -1602 -71 -56 -139 -108 -150 -117 -11
-9 -58 -48 -105 -85 -97 -79 -94 -76 -260 -220 -204 -177 -480 -447 -675 -658
-55 -60 -105 -114 -110 -120 -17 -17 -256 -305 -300 -361 -22 -27 -44 -55 -50
-62 -92 -112 -332 -448 -466 -653 -97 -148 -255 -410 -348 -575 -40 -71 -76
-137 -81 -145 -27 -44 -209 -408 -261 -522 -172 -375 -338 -828 -448 -1223
-28 -102 -104 -408 -115 -465 -2 -14 -14 -70 -25 -125 -26 -129 -68 -374 -76
-445 -3 -30 -8 -62 -10 -70 -2 -8 -7 -43 -10 -77 -3 -34 -7 -70 -9 -80 -2 -10
-7 -47 -10 -83 -4 -36 -8 -78 -11 -95 -3 -27 -14 -164 -20 -270 -21 -326 -21
-842 0 -1155 11 -164 26 -340 40 -460 2 -19 7 -60 10 -90 3 -30 8 -71 10 -90
5 -41 33 -234 40 -270 2 -14 11 -68 20 -120 13 -78 37 -189 90 -430 54 -245
209 -740 315 -1005 71 -178 117 -289 141 -341 16 -36 29 -66 29 -68 0 -17 201
-423 294 -594 33 -62 69 -129 79 -149 89 -173 440 -722 627 -978 82 -113 341
-443 385 -491 5 -6 35 -40 65 -75 228 -264 549 -596 739 -766 30 -26 67 -59
81 -73 58 -56 312 -272 440 -374 74 -59 142 -112 150 -119 196 -157 630 -454
880 -602 63 -37 126 -75 140 -84 14 -8 39 -22 55 -31 17 -9 88 -49 160 -89
277 -155 674 -345 1019 -487 399 -166 874 -332 1221 -428 172 -47 531 -136
614 -151 14 -3 37 -7 51 -10 88 -18 251 -47 284 -51 22 -3 43 -7 46 -9 3 -2
42 -8 86 -14 44 -7 89 -13 100 -15 10 -2 46 -7 79 -11 32 -4 67 -8 76 -10 10
-2 46 -6 81 -10 35 -3 74 -7 88 -10 14 -2 61 -7 105 -10 44 -3 98 -8 120 -10
73 -7 269 -18 575 -31 349 -15 1144 -9 1350 11 19 2 78 6 130 10 52 3 102 8
110 10 8 2 49 7 90 10 41 4 82 8 90 10 8 2 44 6 80 10 36 4 72 9 82 10 9 2 38
7 65 11 26 3 57 8 68 10 11 2 40 7 65 10 25 3 47 7 50 9 3 2 30 6 60 10 30 4
58 9 61 11 4 2 24 6 45 10 22 3 131 26 244 50 113 25 216 47 229 50 70 14 478
124 616 165 1018 305 1956 747 2775 1307 263 180 354 247 585 431 94 74 172
137 175 141 3 3 52 45 110 95 193 164 299 264 535 500 215 216 245 247 410
430 85 94 303 352 422 499 57 70 255 343 328 451 97 144 125 200 125 250 0 28
-6 37 -37 57 -36 22 -49 23 -228 25 -104 1 -248 4 -318 7 -141 4 -202 -5 -282
-45 -61 -29 -159 -125 -245 -239 -35 -47 -66 -87 -69 -90 -3 -3 -33 -39 -66
-80 -309 -390 -727 -823 -1140 -1181 -60 -52 -166 -140 -235 -195 -69 -54
-129 -103 -135 -107 -18 -15 -230 -172 -260 -193 -338 -236 -630 -415 -960
-589 -125 -66 -342 -175 -349 -175 -2 0 -53 -23 -112 -51 -126 -59 -140 -65
-314 -136 -167 -68 -615 -235 -665 -247 -5 -1 -41 -13 -80 -25 -423 -136 -825
-241 -1205 -315 -18 -4 -86 -17 -115 -22 -35 -6 -73 -13 -133 -23 -51 -10 -93
-16 -157 -26 -11 -2 -42 -6 -70 -10 -53 -6 -93 -12 -135 -20 -14 -2 -52 -7
-85 -10 -33 -3 -78 -8 -100 -10 -66 -8 -152 -16 -320 -30 -325 -28 -1011 -28
-1345 0 -111 9 -186 16 -215 19 -16 2 -61 7 -98 11 -37 3 -76 8 -85 9 -9 2
-44 7 -77 10 -63 7 -213 30 -305 46 -30 5 -73 12 -95 16 -34 5 -91 16 -265 50
-14 3 -41 9 -60 14 -19 5 -48 11 -65 14 -58 10 -402 98 -540 137 -329 95 -626
197 -960 331 -112 45 -117 47 -270 113 -173 75 -185 81 -460 216 -264 129
-357 179 -575 302 -300 169 -696 430 -940 617 -199 154 -449 364 -590 494
-148 139 -463 460 -565 576 -239 275 -428 516 -603 770 -29 41 -65 94 -82 118
-16 23 -30 44 -30 46 0 2 -22 36 -49 77 -345 524 -702 1265 -915 1899 -107
321 -218 735 -260 970 -2 14 -11 63 -20 110 -8 47 -18 99 -21 115 -6 33 -33
220 -40 275 -2 19 -7 51 -10 70 -6 42 -11 98 -20 200 -3 41 -8 98 -10 125 -24
285 -25 800 0 1110 13 168 17 219 20 238 2 12 6 47 9 77 5 48 30 240 41 310
25 155 46 282 50 292 2 7 6 29 9 48 5 33 20 111 30 155 2 11 14 63 26 115 27
122 77 322 94 380 8 25 24 79 36 120 82 283 249 738 349 953 23 49 41 90 41
93 0 10 208 422 259 514 168 300 403 664 597 922 99 131 277 355 321 403 10
11 31 36 47 55 144 175 505 548 725 750 58 52 112 102 120 110 9 8 46 40 81
70 36 30 67 57 70 60 3 3 30 25 60 50 30 25 57 47 60 50 7 8 157 128 200 160
19 14 54 41 79 61 169 131 483 344 706 478 66 39 127 76 135 81 157 97 606
322 970 488 62 28 338 142 435 179 44 17 112 44 150 59 153 59 669 223 784
249 9 2 79 20 156 39 164 41 349 81 475 102 14 3 86 15 160 28 143 25 248 42
317 51 23 3 57 8 75 10 89 13 167 22 243 30 33 3 80 8 105 10 84 9 248 22 355
30 367 25 954 20 1300 -10 33 -3 89 -7 125 -10 36 -3 76 -8 90 -10 14 -2 57
-7 95 -10 39 -4 85 -8 103 -11 17 -2 47 -6 65 -8 17 -3 55 -8 82 -11 28 -3 75
-11 105 -16 30 -6 73 -12 95 -15 22 -2 63 -9 90 -14 28 -5 66 -12 85 -15 19
-3 55 -10 80 -15 25 -5 56 -12 70 -14 48 -8 185 -37 225 -48 22 -5 51 -12 65
-15 43 -8 360 -90 470 -123 58 -17 114 -33 125 -35 33 -8 342 -111 460 -153
239 -86 533 -204 690 -277 28 -12 97 -44 155 -70 487 -221 998 -514 1420 -813
161 -114 444 -332 516 -397 6 -5 37 -32 70 -60 32 -27 79 -68 104 -90 24 -22
62 -56 84 -75 184 -164 429 -411 689 -695 71 -78 277 -321 347 -410 30 -39 57
-72 60 -75 39 -37 430 -632 430 -655 0 -2 22 -40 50 -84 27 -44 50 -83 50 -87
0 -3 8 -18 19 -32 10 -15 29 -45 41 -67 82 -148 181 -303 212 -334 24 -24 52
-41 80 -47 24 -6 190 -9 373 -9 296 1 334 3 368 20 99 47 79 122 -128 496 -47
84 -85 154 -85 155 0 1 -36 62 -80 135 -44 73 -80 133 -80 135 0 11 -300 466
-380 577 -291 401 -560 726 -850 1030 -99 104 -337 339 -407 403 -74 68 -102
93 -178 159 -44 39 -82 72 -85 75 -3 3 -57 48 -120 101 -322 267 -667 514
-1055 756 -265 165 -425 257 -712 411 -110 59 -519 262 -527 262 -3 0 -47 20
-98 44 -143 67 -362 157 -653 269 -342 132 -1018 330 -1301 381 -16 3 -40 8
-54 11 -38 9 -271 54 -310 60 -72 12 -87 14 -150 24 -36 5 -85 13 -110 16 -25
3 -56 8 -70 10 -70 10 -271 32 -375 40 -33 3 -89 7 -125 10 -163 14 -274 16
-857 19 -343 2 -624 2 -625 1z"/>
<path d="M11287 20483 c-1 0 -92 -4 -202 -8 -110 -3 -218 -8 -240 -10 -22 -2
-71 -6 -110 -9 -169 -14 -219 -18 -234 -21 -9 -1 -45 -6 -81 -10 -36 -3 -72
-8 -80 -10 -8 -2 -44 -7 -80 -10 -36 -4 -67 -8 -70 -10 -3 -2 -33 -6 -65 -10
-33 -4 -76 -10 -95 -15 -19 -4 -57 -12 -85 -16 -27 -4 -54 -8 -60 -9 -55 -12
-127 -27 -151 -31 -16 -3 -69 -14 -119 -25 -49 -12 -97 -22 -107 -24 -238 -49
-1008 -291 -1193 -375 -11 -5 -72 -30 -135 -56 -554 -223 -1147 -553 -1646
-915 -127 -92 -396 -303 -464 -364 -19 -18 -80 -72 -135 -120 -114 -101 -493
-476 -574 -569 -251 -286 -473 -565 -609 -762 -7 -11 -36 -53 -65 -94 -117
-167 -319 -494 -431 -700 -48 -87 -246 -486 -246 -495 0 -2 -14 -35 -31 -72
-79 -171 -212 -530 -277 -748 -47 -156 -115 -410 -125 -470 -3 -16 -17 -84
-31 -151 -14 -66 -28 -138 -32 -159 -3 -20 -7 -46 -9 -55 -2 -10 -7 -40 -11
-67 -3 -26 -8 -57 -10 -67 -4 -20 -19 -136 -28 -216 -3 -25 -8 -74 -11 -110
-4 -36 -8 -81 -10 -100 -20 -191 -26 -752 -11 -975 4 -60 9 -135 11 -165 4
-62 15 -182 20 -220 2 -14 6 -54 10 -90 3 -36 8 -72 10 -80 2 -8 7 -44 10 -80
4 -36 8 -67 10 -70 2 -3 6 -30 10 -60 3 -30 8 -62 10 -70 2 -8 7 -31 10 -50 4
-29 28 -152 49 -255 67 -327 245 -915 346 -1140 5 -11 38 -87 73 -170 157
-368 356 -733 590 -1085 84 -126 263 -379 277 -390 3 -3 37 -45 75 -95 72 -93
261 -318 344 -409 64 -70 482 -488 561 -561 110 -101 313 -274 442 -376 35
-28 70 -56 79 -63 72 -59 320 -237 466 -334 460 -306 911 -545 1393 -736 80
-32 154 -62 165 -67 46 -21 349 -123 503 -170 214 -65 485 -135 677 -175 11
-2 29 -6 40 -8 61 -14 277 -55 315 -61 25 -4 47 -8 50 -10 3 -1 28 -6 55 -9
28 -4 91 -13 140 -21 117 -18 398 -52 498 -60 43 -4 86 -8 96 -10 9 -2 66 -6
126 -10 61 -4 126 -8 145 -10 193 -18 745 -25 940 -11 220 16 339 26 450 41
19 2 62 7 95 10 33 3 92 11 130 16 39 6 86 12 105 15 62 8 404 66 410 69 3 2
26 6 50 10 25 3 53 8 62 11 9 3 25 7 35 9 10 2 52 11 93 20 41 9 85 18 96 21
12 2 75 18 140 35 66 16 126 32 134 34 130 30 471 141 680 220 579 219 1111
493 1640 844 113 75 209 138 214 140 5 2 16 9 25 17 9 7 106 80 216 162 187
140 442 344 545 437 151 135 491 488 619 642 65 78 65 159 0 190 -34 17 -772
20 -840 4 -106 -25 -154 -55 -287 -182 -209 -200 -449 -396 -716 -586 -140
-100 -432 -292 -501 -329 -11 -6 -65 -38 -120 -71 -252 -150 -612 -332 -890
-448 -49 -20 -103 -43 -120 -50 -298 -129 -959 -322 -1300 -379 -16 -3 -46 -8
-65 -11 -19 -3 -42 -8 -50 -10 -8 -2 -39 -7 -69 -10 -30 -4 -63 -9 -75 -11
-12 -2 -59 -9 -106 -14 -47 -6 -101 -12 -120 -15 -47 -6 -165 -17 -215 -20
-22 -1 -101 -6 -175 -11 -248 -16 -988 -9 -1200 11 -19 2 -71 6 -115 9 -44 4
-96 9 -115 11 -19 2 -60 7 -90 10 -52 6 -82 9 -175 21 -91 11 -124 16 -200 29
-44 7 -100 16 -125 20 -25 3 -88 15 -140 26 -52 11 -106 22 -120 24 -14 2 -77
16 -140 31 -63 14 -122 27 -130 29 -8 2 -41 11 -72 19 -32 9 -84 23 -115 31
-149 40 -405 123 -588 191 -617 228 -1222 561 -1730 952 -411 316 -783 672
-1155 1108 -219 256 -586 764 -720 999 -10 17 -41 71 -70 120 -61 105 -218
410 -277 540 -225 491 -407 1130 -468 1640 -6 47 -16 127 -21 160 -32 233 -37
805 -9 1120 2 28 7 79 10 115 3 36 7 79 10 95 2 17 7 53 10 80 26 225 95 594
156 840 243 978 707 1880 1344 2611 6 6 35 40 65 75 60 71 433 446 520 524
278 250 564 473 890 690 563 377 1132 660 1735 863 203 68 545 168 641 186 10
2 37 9 59 14 94 25 436 89 575 108 19 2 49 6 65 9 108 17 204 28 335 39 41 4
95 9 120 11 193 21 727 32 981 21 182 -9 351 -20 439 -31 19 -2 67 -7 105 -10
39 -3 77 -8 85 -10 8 -2 40 -7 70 -9 30 -3 66 -8 80 -10 14 -3 43 -7 65 -11
22 -3 65 -10 95 -15 30 -5 73 -12 95 -16 145 -21 542 -114 755 -175 561 -162
1153 -417 1660 -712 112 -66 167 -99 195 -117 13 -8 51 -33 86 -54 302 -187
771 -539 984 -739 283 -265 557 -568 775 -856 14 -18 30 -38 35 -44 6 -7 50
-67 99 -134 106 -147 136 -179 201 -209 49 -22 54 -23 405 -21 341 2 357 3
402 24 85 39 79 92 -31 264 -436 682 -888 1199 -1481 1694 -58 49 -107 91
-110 94 -3 3 -34 28 -70 56 -36 27 -67 52 -70 55 -34 42 -750 542 -820 574 -8
3 -27 14 -42 24 -27 18 -128 78 -163 97 -11 6 -58 33 -105 60 -253 144 -639
327 -945 447 -580 229 -1275 409 -1855 483 -25 3 -63 8 -85 11 -71 10 -89 12
-145 19 -30 4 -66 8 -80 10 -14 2 -59 6 -100 10 -41 4 -87 8 -102 10 -15 2
-76 6 -135 10 -59 4 -121 9 -138 11 -59 7 -663 23 -668 17z"/>
<path d="M10582 17608 c-32 -9 -70 -55 -87 -107 -6 -21 -108 -251 -180 -406
-32 -70 -64 -144 -64 -148 0 -1 -18 -39 -41 -85 -22 -45 -40 -85 -40 -87 0 -3
-14 -35 -31 -72 -17 -38 -51 -111 -74 -164 -24 -52 -58 -127 -75 -165 -18 -38
-38 -82 -45 -99 -8 -16 -48 -106 -90 -200 -42 -93 -101 -224 -130 -290 -29
-66 -66 -149 -83 -185 -16 -36 -76 -168 -132 -295 -56 -126 -115 -258 -131
-293 -16 -35 -29 -65 -29 -67 0 -2 -15 -36 -34 -77 -19 -40 -101 -226 -184
-413 -260 -589 -463 -1049 -482 -1090 -10 -22 -42 -94 -70 -160 -29 -66 -65
-148 -81 -182 -16 -34 -40 -90 -54 -123 -14 -34 -41 -93 -59 -133 -19 -40 -73
-162 -121 -272 -48 -110 -98 -222 -111 -250 -12 -27 -49 -111 -82 -185 -33
-74 -71 -160 -85 -190 -14 -30 -53 -118 -87 -195 -34 -77 -72 -162 -85 -190
-28 -62 -30 -67 -215 -480 -84 -187 -184 -412 -222 -500 -38 -88 -76 -175 -84
-192 -141 -325 -176 -418 -181 -483 -7 -111 22 -137 236 -212 63 -22 171 -64
240 -92 239 -99 295 -78 391 147 29 67 61 142 72 166 11 23 61 138 113 255
114 258 308 693 340 761 12 28 37 84 55 125 18 41 50 112 71 158 22 46 39 85
39 87 0 2 16 38 35 79 19 42 35 78 35 80 0 2 17 42 39 88 21 45 53 117 71 158
18 41 43 98 55 125 26 56 187 416 217 485 11 25 30 68 43 95 13 28 69 154 125
280 56 127 118 263 136 303 19 41 34 75 34 77 0 3 14 35 31 72 17 38 39 86 49
108 18 41 45 101 87 195 14 30 50 111 80 180 30 69 66 150 80 180 23 50 67
149 258 575 36 83 75 168 85 190 10 22 39 85 63 140 25 55 62 136 83 180 20
44 38 82 39 85 4 13 27 64 73 160 44 93 86 183 194 419 l30 65 37 -60 c21 -32
118 -237 216 -454 98 -217 206 -454 241 -526 34 -72 78 -165 97 -205 19 -41
61 -128 92 -194 32 -66 76 -160 100 -210 23 -49 70 -146 103 -215 64 -134 139
-291 207 -435 24 -49 77 -162 120 -250 42 -88 95 -198 117 -245 23 -47 67
-139 98 -205 32 -66 78 -163 103 -215 25 -52 71 -149 102 -215 32 -66 79 -165
105 -220 26 -55 76 -158 110 -230 34 -71 79 -166 100 -210 21 -44 66 -138 100
-210 34 -71 77 -161 95 -200 18 -38 56 -119 85 -180 81 -170 118 -250 240
-515 62 -135 134 -292 161 -348 27 -57 49 -105 49 -107 0 -4 87 -191 112 -240
40 -79 88 -114 160 -116 44 -1 89 14 218 74 113 52 154 70 287 122 68 27 138
61 155 76 64 53 53 87 -198 618 -30 62 -54 115 -54 117 0 1 -25 56 -56 121
-31 65 -82 174 -114 243 -32 69 -79 170 -105 225 -87 185 -124 263 -213 455
-16 36 -49 106 -72 155 -23 50 -56 119 -72 155 -57 122 -95 205 -132 283 -20
42 -51 110 -70 150 -18 39 -66 142 -106 227 -40 85 -86 184 -102 219 -16 35
-44 96 -62 135 -19 39 -62 132 -96 206 -81 174 -117 253 -174 373 -25 54 -46
100 -46 101 0 2 -23 53 -51 112 -28 60 -67 143 -86 184 -19 41 -100 217 -180
390 -80 173 -161 349 -180 390 -19 41 -75 161 -123 265 -48 105 -104 225 -124
268 -53 113 -95 204 -223 482 -63 138 -131 284 -150 325 -20 41 -102 219 -183
395 -81 176 -168 363 -192 415 -164 350 -318 689 -323 711 -15 61 -84 95 -153
77z"/>
<path d="M12196 17438 c-30 -31 -135 -277 -250 -588 -19 -52 -51 -135 -72
-184 -20 -49 -41 -118 -47 -152 -10 -56 -8 -73 11 -139 12 -41 47 -128 78
-192 31 -65 76 -158 99 -208 23 -49 68 -144 100 -210 31 -66 70 -148 85 -181
16 -34 48 -101 71 -150 23 -49 99 -210 169 -359 70 -148 155 -328 189 -399 34
-70 61 -129 61 -131 0 -1 38 -82 85 -179 47 -97 85 -178 85 -180 0 -2 35 -77
78 -167 87 -180 120 -252 195 -409 27 -58 66 -141 87 -185 21 -44 59 -125 85
-180 55 -115 123 -259 170 -360 18 -38 53 -114 79 -167 25 -54 67 -142 92
-195 25 -54 66 -141 91 -193 25 -52 63 -131 83 -175 48 -101 104 -220 170
-360 29 -60 69 -146 90 -190 21 -44 59 -125 85 -180 27 -55 49 -102 50 -105 0
-3 16 -36 34 -75 113 -236 204 -430 256 -540 18 -38 60 -128 94 -199 33 -70
61 -129 61 -131 0 -1 30 -65 66 -141 37 -77 81 -170 99 -209 228 -491 229
-493 293 -532 65 -40 125 -30 291 49 58 28 158 70 221 95 171 66 186 73 217
105 24 25 28 37 27 86 0 58 -5 70 -141 362 -20 41 -46 98 -58 125 -13 28 -78
167 -145 310 -67 143 -137 292 -155 330 -58 126 -176 378 -210 450 -33 70
-181 394 -215 470 -42 96 -167 371 -253 560 -54 119 -315 677 -417 890 -29 61
-74 156 -101 213 -27 56 -72 150 -100 210 -28 59 -70 148 -94 197 -23 50 -63
133 -88 185 -24 52 -63 133 -85 180 -22 47 -63 133 -90 192 -28 59 -61 128
-73 155 -12 26 -42 91 -66 143 -25 52 -84 181 -133 285 -87 190 -123 265 -186
403 -19 39 -46 98 -60 130 -35 75 -77 166 -130 280 -24 51 -44 95 -44 97 0 2
-22 50 -49 107 -55 117 -64 137 -191 413 -51 110 -106 229 -122 265 -17 36
-43 92 -58 125 -15 33 -43 94 -63 135 -19 41 -60 131 -91 200 -105 230 -105
230 -187 230 -33 0 -47 -6 -73 -32z"/>
<path d="M4212 2795 l-35 -40 -71 23 c-51 18 -99 25 -168 27 -398 13 -663
-259 -653 -670 5 -188 57 -319 169 -430 112 -111 247 -164 428 -169 184 -5
334 49 433 156 30 32 55 67 55 76 0 10 -16 26 -37 37 -21 10 -46 26 -55 33
-16 14 -22 10 -59 -32 -73 -83 -168 -124 -285 -124 -188 0 -312 94 -375 283
-24 72 -27 93 -25 205 3 140 21 223 67 310 72 135 195 206 338 195 130 -10
181 -57 241 -221 l42 -114 48 0 47 0 0 238 c0 138 -4 242 -9 249 -19 23 -60
10 -96 -32z"/>
<path d="M10640 2793 c-17 -23 -32 -43 -33 -43 -1 0 -24 9 -52 19 -71 27 -186
42 -284 36 -246 -14 -396 -131 -409 -321 -13 -198 90 -302 385 -393 153 -47
185 -59 242 -95 64 -41 83 -78 79 -158 -3 -61 -7 -71 -37 -102 -74 -76 -282
-95 -416 -37 -46 20 -52 26 -69 74 -26 77 -97 218 -106 212 -5 -3 -27 -6 -49
-7 l-41 -1 0 -167 0 -167 53 -25 c116 -58 272 -89 422 -84 99 3 211 21 229 38
6 4 16 8 24 8 16 0 93 52 127 86 91 91 110 275 43 400 -42 77 -137 132 -338
196 -173 55 -199 65 -245 96 -61 42 -86 86 -84 145 4 68 31 106 103 142 53 26
70 29 145 29 148 -1 210 -42 275 -178 l44 -92 40 1 c22 0 44 3 48 8 9 9 9 400
0 415 -3 6 -19 10 -36 10 -22 -1 -36 -11 -60 -45z"/>
<path d="M12324 2794 c-36 -40 -40 -42 -64 -30 -95 48 -289 55 -427 17 -274
-76 -434 -309 -434 -629 0 -61 2 -115 4 -120 3 -4 8 -24 11 -45 3 -21 11 -47
16 -58 6 -10 8 -19 6 -19 -3 0 11 -32 31 -71 44 -88 136 -183 220 -227 133
-70 344 -97 490 -61 133 33 253 113 297 197 l16 31 -61 36 c-61 36 -62 36 -76
15 -72 -102 -183 -152 -328 -146 -230 9 -377 188 -378 460 -2 248 76 421 222
495 102 52 241 48 321 -9 43 -31 71 -79 110 -192 l34 -98 48 0 c43 0 48 2 49
23 3 111 -1 459 -6 466 -3 5 -18 9 -34 9 -21 -1 -40 -13 -67 -44z"/>
<path d="M15070 2815 l-23 -25 -466 -2 -466 -3 -6 -37 c-3 -20 -3 -41 0 -47 7
-11 123 -51 150 -51 11 0 22 -4 26 -9 4 -8 9 -760 6 -917 -1 -30 -3 -32 -73
-49 -117 -28 -114 -26 -110 -79 l4 -46 539 0 c506 0 539 1 540 18 0 9 3 28 5
42 7 31 9 209 4 268 -3 26 -10 46 -19 51 -16 8 -68 8 -74 0 -2 -2 -14 -38 -26
-79 -12 -41 -28 -93 -35 -115 l-13 -40 -251 -3 -251 -2 2 207 2 208 111 2 111
2 21 -47 c33 -72 62 -99 103 -94 l34 4 0 199 c0 192 -1 199 -20 200 -11 0 -27
2 -36 4 -18 3 -45 -28 -77 -91 l-21 -40 -114 -1 -115 -1 0 204 0 204 224 0
c207 0 224 -1 224 -17 1 -10 17 -58 38 -108 33 -81 40 -90 67 -95 17 -3 40 -4
52 -2 21 4 21 7 21 191 -1 102 -5 194 -10 204 -13 25 -51 21 -78 -8z"/>
<path d="M18831 2828 c-65 -81 -63 -80 -103 -64 -64 27 -130 39 -232 41 -218
6 -375 -66 -442 -202 -24 -50 -29 -70 -29 -143 0 -197 107 -292 438 -385 92
-25 200 -79 229 -114 61 -71 56 -174 -9 -235 -72 -68 -284 -81 -412 -25 -42
18 -50 26 -60 62 -17 57 -61 156 -84 190 -17 25 -24 28 -68 26 l-49 -3 0 -163
0 -163 33 -20 c33 -21 126 -59 162 -66 121 -26 193 -33 290 -29 299 11 455
136 455 366 0 188 -87 269 -390 365 -218 69 -287 110 -311 181 -27 83 15 163
107 205 67 30 198 31 264 1 85 -38 106 -63 165 -200 11 -24 21 -43 24 -44 26
-4 78 -5 86 -2 12 4 14 408 2 420 -14 13 -56 14 -66 1z"/>
<path d="M8910 2795 c-245 -42 -405 -187 -476 -430 -30 -102 -24 -325 10 -422
94 -267 321 -416 623 -408 283 8 505 177 579 440 28 103 26 338 -5 410 -5 11
-17 42 -26 68 -59 167 -223 299 -420 338 -79 16 -203 17 -285 4z m223 -131
c169 -36 277 -217 280 -468 1 -122 -7 -189 -33 -262 -51 -146 -131 -226 -260
-261 -8 -2 -48 -4 -88 -4 -128 -1 -235 67 -300 188 -108 204 -84 556 48 706
81 92 216 131 353 101z"/>
<path d="M4956 2602 c-44 -103 -89 -209 -101 -237 -12 -27 -82 -191 -155 -362
-82 -191 -140 -315 -149 -318 -9 -2 -31 -7 -50 -10 -18 -3 -49 -12 -67 -20
-27 -11 -33 -19 -30 -37 3 -13 5 -33 5 -45 l1 -23 250 0 c138 0 250 1 251 3 0
1 3 22 5 47 l6 46 -69 17 c-37 9 -79 19 -93 21 -17 2 -24 9 -22 20 3 16 53
133 71 166 7 13 50 15 278 18 l269 2 42 -99 c23 -54 42 -101 42 -104 0 -2 -17
-7 -37 -11 -127 -21 -143 -28 -143 -65 0 -64 -14 -61 286 -61 l274 0 1 28 c0
15 2 35 4 45 4 20 -36 42 -96 52 -18 3 -35 7 -36 9 -1 1 -43 99 -93 217 -50
118 -95 223 -100 234 -5 11 -53 124 -105 250 -53 127 -113 269 -133 317 l-37
88 -95 0 -95 0 -79 -188z m154 -119 c13 -32 33 -80 45 -108 48 -108 135 -322
135 -331 0 -11 -395 -13 -405 -2 -6 6 192 498 200 498 2 0 13 -26 25 -57z"/>
<path d="M5907 2783 c-3 -4 -7 -26 -8 -48 l-4 -40 60 -22 c33 -12 72 -22 88
-22 32 -1 28 41 28 -376 0 -493 -1 -598 -7 -593 -5 6 -100 -16 -144 -33 -22
-8 -25 -14 -22 -54 l4 -45 304 0 304 0 0 40 c0 22 1 43 3 47 1 4 -34 16 -78
26 -134 31 -120 7 -120 218 0 101 3 183 8 182 4 -2 47 -3 96 -3 l90 0 176
-255 176 -255 154 0 c152 0 155 0 159 22 16 71 16 71 -59 96 l-70 24 -75 105
c-41 58 -79 111 -85 117 -5 6 -25 34 -44 61 -19 28 -50 66 -69 87 l-34 36 47
21 c140 62 220 187 216 336 -4 177 -101 270 -336 322 -45 9 -752 16 -758 6z
m696 -144 c108 -28 156 -86 159 -190 2 -78 -18 -136 -60 -179 -56 -56 -124
-76 -264 -78 -65 -1 -119 1 -119 5 -6 38 -3 449 4 454 14 10 235 0 280 -12z"/>
<path d="M7277 2748 c-3 -23 -4 -45 -2 -49 4 -6 80 -28 148 -43 l27 -6 0 -480
0 -479 -37 -8 c-21 -4 -40 -7 -43 -8 -18 -3 -86 -29 -93 -35 -4 -4 -5 -25 -1
-48 l7 -42 498 0 c494 0 498 0 504 21 20 63 20 367 0 399 -3 6 -24 9 -46 8
l-39 -1 -45 -143 c-25 -78 -51 -144 -58 -146 -7 -2 -100 -4 -207 -4 l-195 1 0
484 0 484 25 3 c14 2 53 11 88 21 l63 16 -2 49 -3 48 -291 0 -292 0 -6 -42z"/>
<path d="M12607 2783 c-2 -5 -4 -26 -3 -48 l1 -40 70 -19 c39 -10 76 -20 83
-22 9 -3 12 -77 12 -326 1 -178 3 -341 6 -363 38 -292 193 -422 514 -429 289
-7 470 144 515 432 4 23 7 185 7 361 l0 318 55 13 c30 6 70 18 89 26 30 13 33
18 30 47 -3 17 -5 38 -5 45 -1 9 -59 12 -255 12 l-253 0 -6 -42 c-3 -23 -4
-45 -2 -49 5 -8 117 -39 153 -43 l27 -3 1 -312 c0 -171 -3 -339 -9 -374 -29
-194 -127 -287 -305 -289 -146 -2 -250 68 -293 198 -22 66 -23 86 -27 421 l-3
352 43 10 c24 6 66 18 94 26 51 15 52 16 45 48 -4 17 -7 37 -7 42 1 12 -570
19 -577 8z"/>
<path d="M15312 2784 c3 -3 2 -21 -2 -40 -10 -43 6 -55 102 -79 64 -16 67 -19
83 -59 9 -22 80 -203 157 -401 77 -198 166 -425 197 -505 l57 -145 91 -3 c79
-2 91 0 98 15 13 34 168 449 200 538 18 50 58 158 90 240 31 83 68 184 83 226
l27 76 65 16 c117 28 121 30 116 79 l-4 43 -258 3 c-178 2 -260 -1 -264 -9 -4
-6 -7 -27 -6 -46 1 -32 5 -37 38 -49 20 -7 54 -15 75 -19 77 -12 75 -8 47 -83
-14 -37 -27 -71 -28 -77 -2 -5 -6 -17 -9 -25 -3 -8 -54 -152 -113 -320 -58
-168 -110 -312 -115 -320 -7 -12 -8 -12 -9 3 0 10 -52 154 -116 320 -108 278
-149 386 -176 460 -6 15 -9 30 -7 32 2 2 22 6 44 9 76 12 133 36 130 54 -2 9
-6 29 -10 45 l-5 27 -292 0 c-160 0 -289 -2 -286 -6z"/>
<path d="M16901 2240 c-214 -503 -237 -551 -260 -556 -14 -3 -51 -13 -81 -23
-58 -18 -59 -18 -51 -98 1 -10 58 -13 250 -13 l249 0 6 23 c10 39 6 66 -11 76
-15 7 -104 28 -150 35 -25 4 -23 15 21 110 l45 96 269 0 269 0 42 -100 c22
-55 41 -102 41 -104 0 -2 -17 -6 -37 -10 -21 -4 -51 -9 -67 -12 -74 -14 -86
-30 -70 -91 l6 -23 274 0 274 0 1 23 c0 12 2 32 5 45 3 18 -3 26 -30 37 -18 8
-48 17 -67 20 -40 7 -49 13 -49 29 0 7 -6 26 -14 42 -8 16 -76 175 -151 354
-75 179 -142 336 -148 350 -5 14 -11 27 -12 30 0 3 -10 25 -21 50 -11 25 -40
93 -64 152 l-45 108 -95 0 -95 0 -234 -550z m358 125 c39 -93 76 -179 81 -190
5 -11 14 -31 19 -45 5 -14 16 -41 24 -60 l15 -35 -209 0 c-136 0 -209 3 -209
10 0 5 41 107 91 225 50 118 95 228 101 243 6 15 12 27 13 25 2 -2 35 -79 74
-173z"/>
<path d="M13511 1193 c-34 -65 -62 -124 -63 -132 -6 -31 35 -18 76 23 76 78
166 194 166 215 0 7 -22 11 -60 11 l-59 0 -60 -117z"/>
<path d="M8169 992 c-14 -16 -38 -18 -287 -17 -214 0 -272 -2 -273 -12 -5 -46
-3 -48 56 -69 37 -14 59 -27 58 -35 -11 -67 -43 -284 -49 -324 -3 -27 -8 -59
-10 -69 -2 -11 -8 -54 -14 -95 -6 -42 -12 -85 -14 -96 -2 -11 -8 -45 -12 -75
-4 -30 -9 -58 -10 -62 -1 -5 -2 -12 -3 -18 0 -5 -8 -10 -16 -10 -8 0 -38 -9
-67 -20 -46 -17 -54 -24 -56 -47 l-2 -28 197 1 c192 1 197 1 207 23 13 30 2
38 -82 59 l-71 17 5 35 c3 19 7 47 10 62 3 15 7 42 9 60 6 48 15 109 21 141 6
27 7 27 80 27 52 0 74 -4 75 -12 4 -64 25 -108 52 -108 13 0 24 6 24 13 1 19
14 121 18 137 2 8 7 40 10 70 3 30 9 63 11 73 5 15 1 18 -23 15 -23 -2 -33
-13 -53 -55 l-25 -52 -79 -1 c-76 0 -78 1 -73 23 3 12 9 45 12 72 3 28 10 75
15 105 5 30 12 78 16 105 3 28 10 54 15 59 7 8 248 11 255 3 1 -1 4 -29 8 -62
12 -124 16 -136 44 -133 28 3 35 20 46 104 3 27 8 60 11 74 3 14 8 51 11 83 6
51 4 57 -13 57 -10 0 -25 -8 -34 -18z"/>
<path d="M12381 976 l-21 -34 -42 20 c-52 25 -162 32 -225 13 -128 -39 -243
-181 -282 -350 -6 -27 -14 -61 -17 -75 -11 -48 -13 -245 -3 -290 15 -66 52
-141 88 -176 55 -55 115 -78 206 -77 92 0 148 20 208 72 33 30 84 99 76 104
-2 1 -14 10 -25 20 -22 18 -23 17 -73 -33 -57 -57 -86 -72 -154 -76 -58 -4
-102 14 -144 58 -56 58 -77 131 -76 263 1 306 133 518 305 491 95 -15 128 -64
128 -189 0 -75 1 -77 24 -77 27 0 24 -12 71 245 3 17 8 51 12 78 5 43 4 47
-15 47 -12 0 -28 -13 -41 -34z"/>
<path d="M13380 980 c-61 -12 -127 -50 -179 -102 -115 -115 -174 -284 -173
-493 2 -186 55 -300 166 -358 31 -15 60 -21 117 -21 66 0 85 4 140 32 77 38
92 51 146 119 49 63 96 158 117 239 45 173 34 375 -25 471 -61 98 -177 141
-309 113z m147 -88 c62 -34 93 -115 96 -251 2 -126 -8 -203 -39 -298 -54 -164
-139 -251 -254 -257 -59 -4 -115 24 -142 71 -41 68 -56 249 -33 388 20 123 94
272 157 317 65 45 161 59 215 30z"/>
<path d="M8329 970 c0 -3 -2 -15 -5 -27 -3 -17 4 -24 36 -37 22 -9 49 -16 60
-16 16 0 19 -5 15 -22 -5 -25 -59 -381 -70 -466 -25 -194 11 -318 107 -368 70
-36 220 -31 283 10 102 67 174 205 200 386 10 68 16 107 20 125 2 11 7 40 10
65 3 25 8 54 9 65 2 11 10 59 16 107 l13 87 53 16 c58 17 87 39 82 64 -3 14
-24 16 -165 16 l-162 1 -6 -25 c-8 -31 1 -39 63 -53 l52 -13 -5 -45 c-3 -25
-10 -70 -15 -100 -5 -30 -12 -73 -15 -95 -3 -22 -8 -53 -10 -70 -12 -75 -15
-91 -20 -134 -8 -62 -56 -221 -67 -221 -4 0 -8 -6 -8 -13 0 -22 -69 -85 -107
-98 -21 -6 -59 -9 -91 -6 -134 14 -161 123 -107 447 2 14 6 43 10 65 3 23 7
50 9 61 2 11 8 47 12 79 4 33 9 63 10 68 1 4 2 18 3 31 1 21 11 27 71 45 43
13 71 27 72 36 0 8 1 21 2 27 1 10 -43 13 -176 13 -98 0 -178 -2 -179 -5z"/>
<path d="M9262 972 c-16 -5 -15 -47 1 -59 6 -6 35 -18 63 -27 l52 -17 -9 -37
c-4 -20 -11 -64 -14 -97 -4 -33 -8 -67 -10 -75 -4 -13 -32 -196 -50 -325 -3
-22 -8 -55 -11 -74 -3 -19 -8 -52 -10 -73 -7 -58 -21 -88 -42 -88 -10 0 -39
-7 -65 -16 -40 -14 -47 -20 -47 -42 l0 -27 176 1 c183 1 193 3 194 45 0 12
-17 20 -61 29 -34 7 -67 13 -74 13 -13 0 -13 0 10 147 9 58 18 121 21 140 2
19 6 46 9 60 3 14 7 45 10 70 3 25 7 55 9 67 3 11 7 43 11 70 4 26 9 59 11 73
3 14 8 49 11 78 3 29 9 49 14 45 4 -4 57 -172 119 -373 61 -201 115 -372 119
-380 5 -9 12 -30 16 -48 3 -18 12 -33 18 -33 22 -2 90 0 93 3 2 2 6 19 9 38 3
19 7 46 10 60 2 14 7 45 10 70 9 67 23 162 30 200 2 8 6 38 9 65 4 28 9 57 11
65 2 8 6 38 10 65 5 46 29 206 39 265 3 14 5 28 5 33 1 4 8 7 17 7 42 0 96 25
105 48 5 14 7 27 4 31 -11 10 -345 7 -346 -4 0 -5 -2 -18 -4 -27 -2 -14 9 -21
48 -33 28 -8 61 -15 74 -15 19 0 23 -4 19 -17 -3 -10 -7 -38 -10 -63 -3 -25
-14 -101 -25 -170 -24 -155 -30 -190 -37 -243 -2 -23 -11 -80 -18 -127 l-13
-85 -12 45 c-23 83 -223 735 -227 739 -6 6 -256 9 -272 3z"/>
<path d="M10210 966 c-19 -19 -10 -45 20 -61 16 -8 33 -15 39 -15 5 0 20 -4
34 -9 24 -9 24 -9 11 -83 -7 -40 -15 -98 -19 -128 -4 -30 -8 -57 -10 -60 -1
-3 -6 -30 -9 -61 -4 -31 -9 -67 -12 -80 -2 -13 -7 -42 -10 -64 -5 -43 -12 -85
-19 -125 -5 -27 -15 -101 -20 -138 -3 -30 -3 -30 -70 -47 -32 -9 -62 -18 -66
-21 -11 -6 -12 -54 -1 -55 20 -2 304 -1 352 2 111 6 195 45 280 130 131 132
204 387 164 577 -25 119 -93 196 -202 227 -68 20 -444 29 -462 11z m443 -101
c87 -41 119 -118 113 -272 -7 -165 -55 -300 -141 -392 -74 -79 -158 -109 -289
-102 -19 1 -19 24 -2 116 2 11 7 42 10 68 4 27 9 57 11 66 2 10 6 42 10 71 4
29 8 60 10 69 3 19 15 95 20 131 10 67 28 187 30 200 2 8 4 27 4 42 1 24 5 27
44 30 60 4 139 -7 180 -27z"/>
<path d="M11325 904 c-19 -41 -35 -77 -35 -80 0 -2 -18 -42 -40 -89 -22 -47
-40 -87 -40 -89 0 -3 -13 -33 -29 -68 -37 -81 -54 -120 -136 -308 -37 -85 -70
-158 -74 -162 -3 -4 -21 -10 -40 -13 -37 -6 -71 -22 -72 -33 0 -4 -2 -15 -4
-25 -4 -20 -15 -19 150 -19 197 0 185 -2 185 26 0 30 -11 38 -76 51 l-52 10
38 93 c20 51 40 95 43 98 10 10 297 8 307 -2 7 -7 40 -162 40 -187 0 -4 -11
-7 -25 -7 -43 0 -105 -30 -105 -51 0 -10 0 -22 0 -26 0 -3 70 -7 155 -7 160
-1 165 0 165 40 0 8 -17 22 -37 31 -21 8 -39 16 -40 17 -3 2 -37 168 -46 221
-3 17 -29 143 -57 280 -28 138 -53 264 -56 280 -12 77 -19 89 -52 92 -31 3
-34 0 -67 -73z m41 -160 c6 -36 42 -220 50 -254 3 -14 8 -41 11 -60 l5 -36
-115 1 c-118 1 -137 5 -120 27 5 7 43 91 83 185 40 95 75 171 77 169 2 -2 6
-16 9 -32z"/>
<path d="M12609 963 c-5 -47 -4 -48 56 -64 33 -9 59 -21 58 -26 -1 -6 -5 -32
-9 -59 -3 -27 -7 -56 -9 -64 -1 -8 -6 -35 -10 -60 -3 -25 -9 -58 -12 -75 -2
-16 -6 -39 -7 -50 -9 -68 -19 -133 -22 -150 -2 -11 -6 -37 -9 -59 -3 -21 -7
-50 -9 -65 -3 -14 -10 -60 -16 -101 l-12 -75 -59 -18 c-37 -11 -62 -25 -69
-38 -23 -41 -12 -44 169 -43 95 1 174 4 176 6 3 2 6 15 7 28 3 22 -4 27 -55
43 l-59 19 6 36 c3 21 10 71 16 112 7 41 13 86 15 100 1 14 5 41 8 60 8 45 45
284 51 330 12 86 19 125 23 130 2 2 32 11 66 20 58 15 62 17 62 45 l0 30 -177
0 c-138 1 -178 -2 -179 -12z"/>
<path d="M13930 955 c-5 -13 -3 -26 7 -37 17 -20 98 -49 108 -40 6 6 -4 -107
-10 -118 -2 -3 -6 -29 -10 -59 -4 -30 -8 -61 -10 -70 -1 -9 -5 -34 -9 -56 -3
-22 -17 -114 -31 -205 -13 -91 -27 -185 -30 -209 -7 -55 -11 -61 -43 -62 -51
-1 -96 -24 -103 -52 -6 -21 -4 -27 9 -28 48 -3 343 -1 346 2 2 2 6 15 8 28 3
22 -3 27 -42 38 -24 7 -57 14 -72 15 -32 3 -31 1 -17 88 5 36 12 76 14 90 2
14 7 45 10 70 3 25 12 86 20 135 8 50 17 108 20 130 5 40 15 106 20 135 1 8 6
40 10 70 l8 55 22 -70 c36 -111 89 -281 166 -535 40 -129 78 -240 86 -246 12
-10 62 -10 89 0 6 3 15 26 18 53 4 26 10 64 12 83 6 41 8 53 28 180 8 52 18
119 21 149 3 30 8 57 10 60 2 4 6 31 9 61 3 30 8 66 11 80 3 14 8 45 11 70 17
123 17 123 54 132 66 16 88 29 93 54 2 13 2 26 -2 27 -3 2 -82 3 -176 3 l-170
-1 0 -29 c0 -25 5 -30 45 -42 25 -8 56 -14 69 -14 28 0 28 15 -13 -255 -13
-88 -27 -180 -31 -205 -3 -25 -10 -70 -15 -100 -5 -30 -12 -73 -15 -94 -7 -52
-11 -54 -19 -11 -4 20 -25 94 -46 163 -21 70 -68 226 -105 347 -37 121 -71
224 -76 229 -5 5 -68 10 -140 11 -123 1 -132 0 -139 -20z"/>
</g>
</svg>
